<?xml version="1.0" standalone="no"?>
<!DOCTYPE svg PUBLIC "-//W3C//DTD SVG 20010904//EN"
 "http://www.w3.org/TR/2001/REC-SVG-20010904/DTD/svg10.dtd">
<svg version="1.0" xmlns="http://www.w3.org/2000/svg"
 width="768.000000pt" height="768.000000pt" viewBox="0 0 768.000000 768.000000"
 preserveAspectRatio="xMidYMid meet">
<metadata>
Created by potrace 1.11, written by Peter Selinger 2001-2013
</metadata>
<g transform="translate(0.000000,768.000000) scale(0.100000,-0.100000)"
fill="#000000" stroke="none">
<path d="M3505 7664 c-574 -54 -1108 -228 -1595 -520 -274 -165 -503 -346
-745 -588 -298 -299 -535 -627 -720 -997 -468 -933 -532 -2022 -178 -3014 232
-650 662 -1250 1213 -1695 896 -722 2058 -994 3175 -744 443 100 881 289 1264
546 469 315 888 760 1174 1245 334 566 527 1244 527 1851 0 141 -3 168 -19
200 -74 143 -257 177 -369 69 -67 -64 -74 -92 -83 -302 -32 -763 -302 -1457
-794 -2040 -113 -134 -337 -353 -465 -456 -479 -383 -1033 -622 -1635 -704
-162 -22 -516 -31 -685 -16 -682 58 -1308 317 -1840 760 -104 86 -296 277
-395 391 -449 521 -724 1154 -799 1837 -18 164 -21 519 -6 674 80 799 412
1501 980 2069 607 609 1413 960 2231 973 150 2 183 -5 266 -60 219 -144 196
-490 -39 -609 -52 -27 -121 -38 -333 -54 -405 -31 -822 -177 -1172 -410 -164
-109 -268 -194 -409 -335 -407 -406 -657 -899 -746 -1470 -29 -188 -31 -561
-5 -735 92 -595 339 -1091 747 -1500 402 -401 890 -648 1460 -737 142 -22 559
-25 685 -5 159 26 292 55 405 89 876 264 1562 992 1779 1886 54 220 65 321 66
562 l0 220 -33 95 c-94 270 -298 465 -569 542 -105 30 -315 32 -413 4 -256
-74 -463 -253 -556 -484 -42 -105 -55 -174 -64 -342 -12 -232 -49 -361 -147
-518 -107 -172 -280 -314 -478 -390 -158 -62 -390 -75 -559 -34 -594 147 -902
794 -636 1337 93 191 242 340 435 436 123 61 226 88 373 98 89 7 122 14 160
33 169 87 167 330 -3 417 -44 23 -61 26 -150 25 -194 -3 -393 -52 -580 -143
-400 -196 -675 -543 -777 -981 -29 -125 -36 -373 -14 -512 49 -308 180 -564
405 -788 169 -169 343 -278 558 -349 166 -56 239 -66 458 -66 181 1 211 3 312
27 277 66 492 187 699 393 164 164 272 337 343 552 45 133 62 232 71 410 9
186 25 235 102 319 115 126 303 145 447 46 106 -72 151 -172 151 -331 -3 -779
-481 -1530 -1201 -1885 -706 -349 -1534 -263 -2184 227 -110 84 -316 292 -403
409 -404 541 -532 1223 -352 1872 158 567 563 1062 1090 1330 276 140 525 205
866 226 106 6 184 16 233 30 280 79 492 291 577 575 36 121 38 307 5 430 -84
316 -333 549 -650 609 -99 19 -259 19 -456 0z"/>
</g>
</svg>
