<svg width="451" height="534" viewBox="0 0 451 534" fill="none" xmlns="http://www.w3.org/2000/svg">
<g clip-path="url(#clip0)">
<path d="M359.6 326.9C395.6 290.5 415.4 242.5 415.4 191.7C415.4 185.1 410.1 179.8 403.5 179.8C396.9 179.8 391.6 185.1 391.6 191.7C391.6 236.2 374.2 278.3 342.7 310.2C311.2 342 269.7 359.6 225.7 359.6C181.7 359.6 140.2 342.1 108.7 310.2C77.2 278.3 59.8 236.2 59.8 191.7C59.8 147.2 77.1 105 108.7 73.1999C140 41.4999 181.2 23.9999 224.8 23.7999C234.3 23.8999 242 31.7999 242 41.4999C242 51.2999 234.2 59.1999 224.6 59.1999C224.2 59.1999 223.7 59.1999 223.3 59.2999C190.4 60.2999 159.6 73.8999 136 97.6999C111.5 122.5 98 155.2 98 189.9C98 224.6 111.5 257.3 136 282.1C160.5 306.9 193 320.6 227.4 320.6C261.8 320.6 294.2 306.9 318.8 282.1C343.3 257.3 356.8 224.6 356.8 189.9C356.8 167 338.3 148.4 315.6 148.4C292.9 148.4 274.4 167 274.4 189.9C274.4 190.2 274.4 190.6 274.5 190.9C274.5 191.2 274.4 191.6 274.4 191.9C274.4 218.1 252.9 239.4 226.5 239.4C200.1 239.4 178.6 218.1 178.6 191.9C178.6 165.7 200.1 144.4 226.5 144.4C233.1 144.4 238.4 139.1 238.4 132.5C238.4 125.9 233.1 120.6 226.5 120.6C187 120.6 154.8 152.6 154.8 191.9C154.8 231.2 187 263.2 226.5 263.2C266 263.2 298.2 231.2 298.2 191.9C298.2 191.6 298.2 191.2 298.1 190.9C298.1 190.6 298.2 190.2 298.2 189.9C298.2 180.1 306 172.2 315.6 172.2C325.2 172.2 333 180.2 333 189.9C333 218.3 321.9 245.1 301.9 265.4C281.9 285.7 255.4 296.8 227.5 296.8C199.5 296.8 173.1 285.6 153.1 265.4C133 245.1 122 218.3 122 189.9C122 161.5 133.1 134.7 153.1 114.4C173.1 94.0999 199.6 82.9999 227.5 82.9999C228.6 82.9999 229.7 82.7999 230.7 82.5999C250.6 79.6999 266 62.3999 266 41.4999C266 19.3999 248.8 1.2999 227.2 -9.76548e-05C226.8 -9.76548e-05 226.3 -0.100098 225.9 -0.100098C225.7 -0.100098 225.4 -0.100098 225.2 -0.100098C225.1 -0.100098 225 -0.100098 224.9 -0.100098C224.8 -0.100098 224.7 -0.100098 224.6 -0.100098C174.4 0.399902 127.4 20.3999 91.8 56.3999C55.8 92.7999 36 140.8 36 191.7C36 242.6 55.8 290.6 91.8 326.9C127.8 363.3 175.4 383.3 225.7 383.3C276 383.3 323.6 363.3 359.6 326.9Z" fill="url(#paint0_linear)"/>
</g>
<path d="M26.334 525.891C20.658 525.891 16.236 524.703 13.068 522.327C9.966 519.951 7.788 516.75 6.534 512.724C5.346 508.698 4.752 504.21 4.752 499.26V470.946C4.752 465.534 5.346 460.815 6.534 456.789C7.788 452.763 9.966 449.661 13.068 447.483C16.236 445.239 20.658 444.117 26.334 444.117C31.35 444.117 35.31 445.041 38.214 446.889C41.184 448.737 43.296 451.377 44.55 454.809C45.87 458.241 46.53 462.366 46.53 467.184V473.52H35.937V467.877C35.937 464.907 35.772 462.3 35.442 460.056C35.178 457.746 34.386 455.964 33.066 454.71C31.746 453.456 29.535 452.829 26.433 452.829C23.265 452.829 20.955 453.522 19.503 454.908C18.051 456.228 17.094 458.142 16.632 460.65C16.236 463.092 16.038 465.963 16.038 469.263V501.042C16.038 505.068 16.368 508.269 17.028 510.645C17.688 512.955 18.777 514.605 20.295 515.595C21.813 516.585 23.859 517.08 26.433 517.08C29.469 517.08 31.647 516.42 32.967 515.1C34.287 513.714 35.112 511.833 35.442 509.457C35.772 507.081 35.937 504.309 35.937 501.141V495.201H46.53V501.141C46.53 506.025 45.936 510.348 44.748 514.11C43.56 517.806 41.514 520.71 38.61 522.822C35.706 524.868 31.614 525.891 26.334 525.891ZM72.0372 525.792C67.8132 525.792 64.4802 524.934 62.0382 523.218C59.5962 521.502 57.8472 519.06 56.7912 515.892C55.8012 512.724 55.3062 508.995 55.3062 504.705V488.073C55.3062 483.783 55.8012 480.054 56.7912 476.886C57.8472 473.718 59.5962 471.276 62.0382 469.56C64.4802 467.844 67.8132 466.986 72.0372 466.986C76.2612 466.986 79.5612 467.844 81.9372 469.56C84.3792 471.276 86.0952 473.718 87.0852 476.886C88.1412 480.054 88.6692 483.783 88.6692 488.073V504.705C88.6692 508.995 88.1412 512.724 87.0852 515.892C86.0952 519.06 84.3792 521.502 81.9372 523.218C79.5612 524.934 76.2612 525.792 72.0372 525.792ZM72.0372 517.971C74.0832 517.971 75.5022 517.377 76.2942 516.189C77.1522 515.001 77.6472 513.45 77.7792 511.536C77.9772 509.556 78.0762 507.51 78.0762 505.398V487.479C78.0762 485.301 77.9772 483.255 77.7792 481.341C77.6472 479.427 77.1522 477.876 76.2942 476.688C75.5022 475.434 74.0832 474.807 72.0372 474.807C69.9912 474.807 68.5392 475.434 67.6812 476.688C66.8232 477.876 66.2952 479.427 66.0972 481.341C65.9652 483.255 65.8992 485.301 65.8992 487.479V505.398C65.8992 507.51 65.9652 509.556 66.0972 511.536C66.2952 513.45 66.8232 515.001 67.6812 516.189C68.5392 517.377 69.9912 517.971 72.0372 517.971ZM98.3519 525V467.778H108.153V473.223C110.067 471.045 112.179 469.428 114.489 468.372C116.799 467.316 119.175 466.788 121.617 466.788C123.729 466.788 125.61 467.316 127.26 468.372C128.976 469.428 130.197 471.309 130.923 474.015C132.969 471.507 135.18 469.692 137.556 468.57C139.998 467.382 142.539 466.788 145.179 466.788C147.027 466.788 148.71 467.25 150.228 468.174C151.746 469.032 152.967 470.451 153.891 472.431C154.815 474.345 155.277 476.886 155.277 480.054V525H145.575V480.747C145.575 477.975 145.113 476.127 144.189 475.203C143.331 474.213 142.143 473.718 140.625 473.718C139.173 473.718 137.655 474.147 136.071 475.005C134.487 475.797 133.035 476.919 131.715 478.371C131.715 478.635 131.715 478.899 131.715 479.163C131.715 479.427 131.715 479.724 131.715 480.054V525H122.013V480.747C122.013 477.975 121.551 476.127 120.627 475.203C119.769 474.213 118.581 473.718 117.063 473.718C115.611 473.718 114.093 474.147 112.509 475.005C110.991 475.797 109.539 476.919 108.153 478.371V525H98.3519ZM165.641 525V467.778H175.442V473.223C177.356 471.045 179.468 469.428 181.778 468.372C184.088 467.316 186.464 466.788 188.906 466.788C191.018 466.788 192.899 467.316 194.549 468.372C196.265 469.428 197.486 471.309 198.212 474.015C200.258 471.507 202.469 469.692 204.845 468.57C207.287 467.382 209.828 466.788 212.468 466.788C214.316 466.788 215.999 467.25 217.517 468.174C219.035 469.032 220.256 470.451 221.18 472.431C222.104 474.345 222.566 476.886 222.566 480.054V525H212.864V480.747C212.864 477.975 212.402 476.127 211.478 475.203C210.62 474.213 209.432 473.718 207.914 473.718C206.462 473.718 204.944 474.147 203.36 475.005C201.776 475.797 200.324 476.919 199.004 478.371C199.004 478.635 199.004 478.899 199.004 479.163C199.004 479.427 199.004 479.724 199.004 480.054V525H189.302V480.747C189.302 477.975 188.84 476.127 187.916 475.203C187.058 474.213 185.87 473.718 184.352 473.718C182.9 473.718 181.382 474.147 179.798 475.005C178.28 475.797 176.828 476.919 175.442 478.371V525H165.641ZM246.196 525.792C241.51 525.792 237.748 524.34 234.91 521.436C232.072 518.466 230.455 514.572 230.059 509.754L238.87 507.081C239.398 510.711 240.289 513.45 241.543 515.298C242.797 517.08 244.645 517.971 247.087 517.971C249.001 517.971 250.453 517.443 251.443 516.387C252.433 515.265 252.928 513.78 252.928 511.932C252.928 510.282 252.565 508.797 251.839 507.477C251.113 506.157 249.925 504.804 248.275 503.418L238.474 495.003C236.494 493.287 234.811 491.373 233.425 489.261C232.105 487.149 231.445 484.41 231.445 481.044C231.445 478.008 232.039 475.467 233.227 473.421C234.481 471.309 236.197 469.725 238.375 468.669C240.619 467.547 243.226 466.986 246.196 466.986C250.75 466.986 254.215 468.471 256.591 471.441C259.033 474.345 260.419 477.876 260.749 482.034L253.621 484.707C253.357 482.727 252.961 481.011 252.433 479.559C251.905 478.041 251.179 476.886 250.255 476.094C249.331 475.236 248.11 474.807 246.592 474.807C244.876 474.807 243.49 475.401 242.434 476.589C241.444 477.711 240.949 479.064 240.949 480.648C240.949 481.638 241.147 482.628 241.543 483.618C242.005 484.542 242.764 485.466 243.82 486.39L253.918 495.696C255.304 496.95 256.591 498.303 257.779 499.755C259.033 501.207 260.056 502.857 260.848 504.705C261.64 506.553 262.036 508.698 262.036 511.14C262.036 514.374 261.376 517.08 260.056 519.258C258.736 521.436 256.888 523.086 254.512 524.208C252.136 525.264 249.364 525.792 246.196 525.792ZM281.244 525L268.176 444.81H277.482L286.095 502.428L296.886 445.107H304.806L315.696 502.725L324.111 444.81H333.219L320.349 525H312.231L301.044 465.6L289.758 525H281.244ZM350.83 525.792C348.586 525.792 346.606 525.165 344.89 523.911C343.174 522.591 341.821 520.941 340.831 518.961C339.841 516.915 339.346 514.77 339.346 512.526C339.346 508.962 339.94 505.959 341.128 503.517C342.316 501.075 343.933 499.029 345.979 497.379C348.091 495.663 350.5 494.178 353.206 492.924C355.978 491.67 358.882 490.449 361.918 489.261V485.202C361.918 482.892 361.786 480.978 361.522 479.46C361.258 477.942 360.697 476.82 359.839 476.094C359.047 475.302 357.826 474.906 356.176 474.906C354.724 474.906 353.536 475.236 352.612 475.896C351.754 476.556 351.127 477.513 350.731 478.767C350.335 479.955 350.137 481.374 350.137 483.024V485.895L339.643 485.499C339.775 479.163 341.227 474.51 343.999 471.54C346.771 468.504 351.061 466.986 356.869 466.986C362.545 466.986 366.571 468.537 368.947 471.639C371.323 474.741 372.511 479.229 372.511 485.103V511.239C372.511 513.021 372.544 514.737 372.61 516.387C372.742 518.037 372.874 519.588 373.006 521.04C373.204 522.426 373.369 523.746 373.501 525H363.799C363.601 523.944 363.337 522.624 363.007 521.04C362.743 519.39 362.545 517.905 362.413 516.585C361.753 518.829 360.466 520.941 358.552 522.921C356.704 524.835 354.13 525.792 350.83 525.792ZM354.988 516.684C356.044 516.684 357.034 516.387 357.958 515.793C358.882 515.199 359.707 514.539 360.433 513.813C361.159 513.021 361.654 512.394 361.918 511.932V495.696C360.268 496.62 358.717 497.544 357.265 498.468C355.813 499.392 354.526 500.382 353.404 501.438C352.348 502.428 351.49 503.583 350.83 504.903C350.236 506.157 349.939 507.609 349.939 509.259C349.939 511.569 350.368 513.384 351.226 514.704C352.084 516.024 353.338 516.684 354.988 516.684ZM382.984 525V467.778H393.577V475.896C395.689 472.398 397.801 470.055 399.913 468.867C402.025 467.679 404.137 467.085 406.249 467.085C406.513 467.085 406.744 467.085 406.942 467.085C407.206 467.085 407.536 467.118 407.932 467.184V478.866C407.14 478.536 406.216 478.272 405.16 478.074C404.17 477.81 403.147 477.678 402.091 477.678C400.441 477.678 398.923 478.074 397.537 478.866C396.217 479.592 394.897 481.044 393.577 483.222V525H382.984ZM430.334 525.792C425.846 525.792 422.381 524.934 419.939 523.218C417.497 521.436 415.781 518.862 414.791 515.496C413.867 512.064 413.405 507.873 413.405 502.923V489.855C413.405 484.773 413.9 480.549 414.89 477.183C415.88 473.817 417.596 471.276 420.038 469.56C422.546 467.844 425.978 466.986 430.334 466.986C435.152 466.986 438.683 467.976 440.927 469.956C443.237 471.936 444.755 474.807 445.481 478.569C446.207 482.265 446.57 486.72 446.57 491.934V496.587H423.998V508.071C423.998 510.381 424.196 512.262 424.592 513.714C425.054 515.166 425.747 516.255 426.671 516.981C427.661 517.641 428.915 517.971 430.433 517.971C432.017 517.971 433.205 517.608 433.997 516.882C434.855 516.09 435.416 515.001 435.68 513.615C436.01 512.163 436.175 510.48 436.175 508.566V505.101H446.471V507.279C446.471 513.021 445.25 517.542 442.808 520.842C440.366 524.142 436.208 525.792 430.334 525.792ZM423.998 490.845H436.175V485.697C436.175 483.321 436.043 481.341 435.779 479.757C435.515 478.107 434.954 476.886 434.096 476.094C433.304 475.236 432.017 474.807 430.235 474.807C428.519 474.807 427.199 475.203 426.275 475.995C425.417 476.787 424.823 478.14 424.493 480.054C424.163 481.902 423.998 484.476 423.998 487.776V490.845Z" fill="url(#paint1_linear)"/>
<defs>
<linearGradient id="paint0_linear" x1="91.1039" y1="326.262" x2="329.465" y2="87.9013" gradientUnits="userSpaceOnUse">
<stop stop-color="#28285B"/>
<stop offset="0.1125" stop-color="#2E295B"/>
<stop offset="0.2599" stop-color="#3E2B5A"/>
<stop offset="0.4267" stop-color="#592E59"/>
<stop offset="0.6076" stop-color="#7F3257"/>
<stop offset="0.7987" stop-color="#AF3855"/>
<stop offset="0.9898" stop-color="#E73E53"/>
</linearGradient>
<linearGradient id="paint1_linear" x1="65.5031" y1="517.933" x2="95.6333" y2="390.785" gradientUnits="userSpaceOnUse">
<stop stop-color="#28285B"/>
<stop offset="0.1125" stop-color="#2E295B"/>
<stop offset="0.2599" stop-color="#3E2B5A"/>
<stop offset="0.4267" stop-color="#592E59"/>
<stop offset="0.6076" stop-color="#7F3257"/>
<stop offset="0.7987" stop-color="#AF3855"/>
<stop offset="0.9898" stop-color="#E73E53"/>
</linearGradient>
<clipPath id="clip0">
<rect width="379.4" height="383.4" fill="white" transform="translate(36)"/>
</clipPath>
</defs>
</svg>
