<svg width="380" height="384" viewBox="0 0 380 384" fill="none" xmlns="http://www.w3.org/2000/svg">
<g clip-path="url(#clip0)">
<path d="M323.6 326.9C359.6 290.5 379.4 242.5 379.4 191.7C379.4 185.1 374.1 179.8 367.5 179.8C360.9 179.8 355.6 185.1 355.6 191.7C355.6 236.2 338.2 278.3 306.7 310.2C275.2 342 233.7 359.6 189.7 359.6C145.7 359.6 104.2 342.1 72.7 310.2C41.2 278.3 23.8 236.2 23.8 191.7C23.8 147.2 41.1 105 72.7 73.1999C104 41.4999 145.2 23.9999 188.8 23.7999C198.3 23.8999 206 31.7999 206 41.4999C206 51.2999 198.2 59.1999 188.6 59.1999C188.2 59.1999 187.7 59.1999 187.3 59.2999C154.4 60.2999 123.6 73.8999 100 97.6999C75.5 122.5 62 155.2 62 189.9C62 224.6 75.5 257.3 100 282.1C124.5 306.9 157 320.6 191.4 320.6C225.8 320.6 258.2 306.9 282.8 282.1C307.3 257.3 320.8 224.6 320.8 189.9C320.8 167 302.3 148.4 279.6 148.4C256.9 148.4 238.4 167 238.4 189.9C238.4 190.2 238.4 190.6 238.5 190.9C238.5 191.2 238.4 191.6 238.4 191.9C238.4 218.1 216.9 239.4 190.5 239.4C164.1 239.4 142.6 218.1 142.6 191.9C142.6 165.7 164.1 144.4 190.5 144.4C197.1 144.4 202.4 139.1 202.4 132.5C202.4 125.9 197.1 120.6 190.5 120.6C151 120.6 118.8 152.6 118.8 191.9C118.8 231.2 151 263.2 190.5 263.2C230 263.2 262.2 231.2 262.2 191.9C262.2 191.6 262.2 191.2 262.1 190.9C262.1 190.6 262.2 190.2 262.2 189.9C262.2 180.1 270 172.2 279.6 172.2C289.2 172.2 297 180.2 297 189.9C297 218.3 285.9 245.1 265.9 265.4C245.9 285.7 219.4 296.8 191.5 296.8C163.5 296.8 137.1 285.6 117.1 265.4C97 245.1 86 218.3 86 189.9C86 161.5 97.1 134.7 117.1 114.4C137.1 94.0999 163.6 82.9999 191.5 82.9999C192.6 82.9999 193.7 82.7999 194.7 82.5999C214.6 79.6999 230 62.3999 230 41.4999C230 19.3999 212.8 1.2999 191.2 -9.76548e-05C190.8 -9.76548e-05 190.3 -0.100098 189.9 -0.100098C189.7 -0.100098 189.4 -0.100098 189.2 -0.100098C189.1 -0.100098 189 -0.100098 188.9 -0.100098C188.8 -0.100098 188.7 -0.100098 188.6 -0.100098C138.4 0.399902 91.4 20.3999 55.8 56.3999C19.8 92.7999 0 140.8 0 191.7C0 242.6 19.8 290.6 55.8 326.9C91.8 363.3 139.4 383.3 189.7 383.3C240 383.3 287.6 363.3 323.6 326.9Z" fill="url(#paint0_linear)"/>
</g>
<defs>
<linearGradient id="paint0_linear" x1="55.1039" y1="326.262" x2="293.465" y2="87.9013" gradientUnits="userSpaceOnUse">
<stop stop-color="#28285B"/>
<stop offset="0.1125" stop-color="#2E295B"/>
<stop offset="0.2599" stop-color="#3E2B5A"/>
<stop offset="0.4267" stop-color="#592E59"/>
<stop offset="0.6076" stop-color="#7F3257"/>
<stop offset="0.7987" stop-color="#AF3855"/>
<stop offset="0.9898" stop-color="#E73E53"/>
</linearGradient>
<clipPath id="clip0">
<rect width="379.4" height="383.4" fill="white"/>
</clipPath>
</defs>
</svg>
